<?xml version="1.0" encoding="utf-8"?>
<!-- Generator: Adobe Illustrator 19.2.1, SVG Export Plug-In . SVG Version: 6.00 Build 0)  -->
<svg version="1.1" id="layer" xmlns="http://www.w3.org/2000/svg" xmlns:xlink="http://www.w3.org/1999/xlink" x="0px" y="0px"
	 viewBox="0 0 652 652" style="enable-background:new 0 0 652 652;" xml:space="preserve">
<style type="text/css">
	.st0{fill:#FF003C;}
	.st1{fill:#FFFFFF;}
</style>
<g>
	<path d="M427.3,290.9h-12.9c-0.9,0-1.9,0.9-2,2l-9.6,68.3c-0.1,1,0.5,2,1.4,2h12.9c0.9,0,1.9-0.9,2-2l9.6-68.3
		C428.8,291.8,428.2,290.9,427.3,290.9"/>
	<path d="M220,347.6c-8.1,0-13.9-8-13.9-17.6c0-12.8,8.6-23.6,19.7-23.6c8.2,0,14,8,14,17.7C239.8,336.9,231.2,347.6,220,347.6
		 M362.4,304.1l1.6-11.2c0.1-1-0.5-2-1.5-2h-61.3h-1.6c-1,0-1.9,0.9-2,2l-6,43.3c-1,7.2-6,11.5-12.1,11.5c-5.7,0-9.4-4.2-8.3-11.5
		l6-43.3c0.1-1-0.6-2-1.6-2h-13.1c-0.9,0-1.8,0.9-2,2l-3.9,28.6c-0.3-17.5-12.9-31.6-28.7-31.6c-21.4,0-38.7,19-38.7,42.3
		c0,17.8,12.9,32,28.7,32c17.3,0,31.7-12.1,36.8-28.9l-0.2,1.7c-2.3,15.7,9.2,27.1,23,27.1c17.1,0,28.2-10.4,30.5-27.1l4.3-31h18.3
		l-7.7,55.1c-0.1,1,0.6,2,1.5,2h12.8c0.9,0,2-0.9,2.1-2l7.7-55.1h13.6C361.5,306,362.3,305.1,362.4,304.1"/>
	<path d="M395.7,320.9h-16.5l2.1-14.9h24.5c1,0,1.8-0.9,1.9-1.9l1.6-11.2c0.1-1-0.5-2-1.5-2h-38.8c-0.9,0-1.8,0.9-2,2l-9.6,68.3
		c-0.2,1,0.4,2,1.4,2h12.5c0.9,0,1.9-0.9,2.1-2l3.5-25.1h16.6c0.9,0,1.8-0.9,1.9-2l1.6-11.3C397.4,321.8,396.7,320.9,395.7,320.9"/>
	<path d="M596.1,321.7h-11.3l2.3-16.1h11.8c3.7,0,5.6,3,5.6,6.6C604.4,317.2,600.9,321.7,596.1,321.7 M620.6,310.3
		c0-10.6-7.3-19.4-18.1-19.4h-27.8c-0.9,0-1.9,0.9-2,2l-9.6,68.3c-0.2,1,0.4,2,1.4,2h12.8c0.9,0,1.9-0.9,2-2l3.7-26.3h4.5l8.1,26.4
		c0.4,1.5,1,1.9,2.4,1.9h12.7c1.5,0,2.5-1.7,2-3l-9-26.2C614.3,330.6,620.6,321.3,620.6,310.3"/>
	<path d="M560.2,347.9h-24.5l1.7-11.8h16.5c0.9,0,1.9-0.8,2.1-2l1.6-11.2c0.1-1-0.6-2-1.5-2h-16.6l2.2-14.9h24.5
		c1,0,1.8-0.9,1.9-1.9l1.7-11.3c0.1-1-0.5-1.9-1.6-1.9h-86.5c-0.9,0-1.8,0.9-1.9,2l-1.6,11.2c-0.1,1,0.5,2,1.5,2h11.3l-7.7,55.1
		c-0.1,1,0.6,2,1.6,2h12.8c0.9,0,2-0.9,2.1-2l7.7-55.1h18.4l-7.7,55.1c-0.2,1,0.4,2,1.4,2h38.8c1,0,1.9-0.9,2.1-2l1.5-11.2
		C561.8,348.9,561.3,347.9,560.2,347.9"/>
	<path d="M475,290.9h-41.2c-0.9,0-1.9,0.9-2,2l-1.6,11.2c-0.1,1,0.5,2,1.5,2h13.5l-7.7,55.1c-0.1,1,0.6,2,1.5,2h12.8
		c0.9,0,2-0.9,2.1-2l7.7-55.1H473c1,0,1.8-0.9,1.9-2l1.6-11.2C476.7,291.8,476.1,290.9,475,290.9"/>
</g>
<polygon class="st0" points="156.6,391 20.6,391 39.7,255 175.6,255 "/>
<g>
	<path class="st1" d="M91.8,354.9c-9,0-16.4-7.3-16.4-16.3c0-9.1,7.3-16.5,16.4-16.5c9.1,0,16.4,7.4,16.4,16.5
		C108.2,347.6,100.8,354.9,91.8,354.9 M135.2,309l-10.3-10.2c-0.5-0.5-1.2-0.5-1.6,0l-12.5,12.5c-3-2.1-6.4-3.7-10.1-4.7l22.4-22.2
		c0.5-0.5,0.5-1.2,0-1.6l-10.3-10.2c-0.5-0.5-1.2-0.5-1.6,0L68.3,315c-6.1,6-9.9,14.4-9.9,23.6c0,18.6,14.6,33.2,33.3,33.2
		c18.7,0,33.4-14.6,33.4-33.2c0-5.2-1.3-10.2-3.4-14.6l13.4-13.4C135.6,310.2,135.6,309.5,135.2,309"/>
</g>
</svg>
